<svg t="1679816832434" class="icon" viewBox="0 0 1024 1024" version="1.1" xmlns="http://www.w3.org/2000/svg" p-id="1990" width="200" height="200"><path d="M479.072 512l-98.72-98.72c-9.152-9.152-9.088-23.84 0-32.928 9.152-9.152 23.84-9.088 32.928 0l98.72 98.72 98.72-98.72c9.152-9.152 23.84-9.088 32.928 0 9.152 9.152 9.088 23.84 0 32.928l-98.72 98.72 98.72 98.72c9.152 9.152 9.088 23.84 0 32.928-9.152 9.152-23.84 9.088-32.928 0l-98.72-98.72-98.72 98.72c-9.152 9.152-23.84 9.088-32.928 0-9.152-9.152-9.088-23.84 0-32.928l98.72-98.72zM512 837.824c179.936 0 325.824-145.888 325.824-325.824s-145.888-325.824-325.824-325.824c-179.936 0-325.824 145.888-325.824 325.824s145.888 325.824 325.824 325.824z" fill="#B7B8B9" p-id="1991"></path></svg>