<svg t="1679816926658" class="icon" viewBox="0 0 1024 1024" version="1.1" xmlns="http://www.w3.org/2000/svg" p-id="2410" width="200" height="200"><path d="M797.354667 223.146667a33.621333 33.621333 0 0 1 0 47.573333L274.218667 793.856a33.621333 33.621333 0 0 1-47.573334-47.530667L749.781333 223.146667a33.621333 33.621333 0 0 1 47.573334 0z m-36.906667 132.010666a653.696 653.696 0 0 1 107.221333 95.957334 85.333333 85.333333 0 0 1 4.906667 108.928l-4.906667 5.888-11.605333 12.501333c-104.789333 110.336-219.477333 165.504-344.064 165.504A405.205333 405.205333 0 0 1 390.229333 725.333333l86.912-86.912a134.698667 134.698667 0 0 0 164.821334-164.821333l118.485333-118.485333zM512 273.109333c41.728 0 82.304 6.186667 121.813333 18.56l-86.954666 86.912a134.698667 134.698667 0 0 0-164.821334 164.821334l-118.485333 118.485333a653.696 653.696 0 0 1-107.221333-95.957333 85.333333 85.333333 0 0 1-4.906667-108.928l4.906667-5.888 11.605333-12.501334C272.725333 328.277333 387.413333 273.109333 512 273.109333z" fill="#A2B2C3" p-id="2411"></path></svg>