<svg t="1679816912312" class="icon" viewBox="0 0 1024 1024" version="1.1" xmlns="http://www.w3.org/2000/svg" p-id="2271" width="200" height="200"><path d="M512 256c129.194667 0 247.765333 59.306667 355.669333 177.962667a85.333333 85.333333 0 0 1 0 114.858666l-11.605333 12.458667c-104.789333 110.336-219.477333 165.546667-344.064 165.546667-129.194667 0-247.765333-59.349333-355.669333-178.005334a85.333333 85.333333 0 0 1 0-114.858666l11.605333-12.458667C272.725333 311.168 387.413333 256 512 256z m0 100.864a134.528 134.528 0 1 0 0 269.056 134.528 134.528 0 0 0 0-269.056z" fill="#A2B2C3" p-id="2272"></path></svg>